HIERARCHY
ROOT Hips
{
  OFFSET 2.26061 22.2878 23.7974
  CHANNELS 6 Xposition Yposition Zposition Zrotation Xrotation Yrotation
  JOINT LeftUpLeg
  {
    OFFSET 8.64259 1.95398 -2.38835
    CHANNELS 3 Zrotation Xrotation Yrotation
    JOINT LeftLeg
    {
      OFFSET 43.7702 0 0
      CHANNELS 3 Zrotation Xrotation Yrotation
      JOINT LeftFoot
      {
        OFFSET 40.6238 0 0
        CHANNELS 3 Zrotation Xrotation Yrotation
        JOINT LeftToeBase
        {
          OFFSET 12.7242 0 0
          CHANNELS 3 Zrotation Xrotation Yrotation
          End Site
          {
            OFFSET 0 0 0
          }
        }
      }
    }
  }
  JOINT RightUpLeg
  {
    OFFSET -8.2249 1.95398 -2.59336
    CHANNELS 3 Zrotation Xrotation Yrotation
    JOINT RightLeg
    {
      OFFSET 43.5653 0 0
      CHANNELS 3 Zrotation Xrotation Yrotation
      JOINT RightFoot
      {
        OFFSET 40.6238 0 0
        CHANNELS 3 Zrotation Xrotation Yrotation
        JOINT RightToeBase
        {
          OFFSET 12.7242 0 0
          CHANNELS 3 Zrotation Xrotation Yrotation
          End Site
          {
            OFFSET 0 0 0
          }
        }
      }
    }
  }
  JOINT Spine
  {
    OFFSET 0.165834 0.87714 6.61349
    CHANNELS 3 Zrotation Xrotation Yrotation
    JOINT Spine1
    {
      OFFSET 7.38963 1.71661e-005 0
      CHANNELS 3 Zrotation Xrotation Yrotation
      JOINT Spine2
      {
        OFFSET 11.9445 1.14441e-005 0
        CHANNELS 3 Zrotation Xrotation Yrotation
        JOINT Spine3
        {
          OFFSET 14.7254 4.19617e-005 0
          CHANNELS 3 Zrotation Xrotation Yrotation
          JOINT Spine4
          {
            OFFSET 10.9679 0 0
            CHANNELS 3 Zrotation Xrotation Yrotation
            JOINT RightShoulder
            {
              OFFSET 2.46616 -1.6653 3.69651
              CHANNELS 3 Zrotation Xrotation Yrotation
              JOINT RightArm
              {
                OFFSET 13.0012 0 0
                CHANNELS 3 Zrotation Xrotation Yrotation
                JOINT RightForeArm
                {
                  OFFSET 28.7848 1.52588e-005 0
                  CHANNELS 3 Zrotation Xrotation Yrotation
                  JOINT RightHand
                  {
                    OFFSET 26.5688 1.52588e-005 0
                    CHANNELS 3 Zrotation Xrotation Yrotation
                    End Site
                    {
                      OFFSET 0 0 0
                    }
                  }
                }
              }
            }
            JOINT LeftShoulder
            {
              OFFSET 2.38034 -1.29275 -3.7523
              CHANNELS 3 Zrotation Xrotation Yrotation
              JOINT LeftArm
              {
                OFFSET 16.3182 6.10351e-005 0
                CHANNELS 3 Zrotation Xrotation Yrotation
                JOINT LeftForeArm
                {
                  OFFSET 27.0901 0 0
                  CHANNELS 3 Zrotation Xrotation Yrotation
                  JOINT LeftHand
                  {
                    OFFSET 24.5451 1.52588e-005 0
                    CHANNELS 3 Zrotation Xrotation Yrotation
                    End Site
                    {
                      OFFSET 0 0 0
                    }
                  }
                }
              }
            }
            JOINT Neck
            {
              OFFSET 5.0226 -0.0266342 0
              CHANNELS 3 Zrotation Xrotation Yrotation
              JOINT Head
              {
                OFFSET 6.69363 2.86102e-005 0
                CHANNELS 3 Zrotation Xrotation Yrotation
                End Site
                {
                  OFFSET 0 0 0
                }
              }
            }
          }
        }
      }
    }
  }
}
MOTION
Frames:	13
Frame Time:	0.0416667
-61.7372 96.6954 47.7106 90.0113 -86.3797 87.1218 -171.944 5.15436 95.5073 -8.27491 13.0824 2.52811 55.2607 -1.27536 -1.81987 34.0622 4.07847 3.07207 171.803 5.51854 89.6557 -16.5128 -4.8313 0.0572364 69.4508 -3.29335 -1.63957 27.3262 0.0933366 -2.15379 -0.271764 6.90564 -91.1043 13.0483 -1.0702 -2.07764 1.3762 -1.16059 -2.02856 -21.1464 -0.396511 -2.30311 -1.13372 -0.396502 -2.30311 92.5327 -54.0162 -96.2145 15.1374 -5.82249 -1.09734 -2.41986 -28.4346 -37.8026 -6.28118 -1.00598 6.87375 -106.404 -52.3891 55.9334 -17.0268 22.4959 -4.69411 -0.409679 13.2771 -32.5887 13.3686 1.16807 4.71584 8.67843 -1.05577 -7.78701 -2.02505 0.440678 0.853304 
-61.8228 96.6924 47.6247 97.5781 -87.2955 94.3758 -171.945 4.66936 95.32 -8.39264 12.1109 2.49643 55.1682 -1.14254 -2.22801 34.4156 4.36633 3.27074 171.791 5.61082 89.3891 -17.1489 -5.64601 -0.14925 69.7563 -3.40757 -1.68454 27.0541 0.0713035 -1.98468 -0.296682 6.9517 -91.0905 12.9561 -1.11231 -2.04581 1.28409 -1.20125 -1.99491 -21.2391 -0.446217 -2.2854 -1.22641 -0.446215 -2.2854 91.8049 -53.2018 -97.4342 15.7944 -5.7564 -0.828963 -2.78489 -28.5957 -38.0671 -5.84195 -0.983079 7.02016 -106.065 -52.9034 56.6202 -17.2317 22.5995 -5.07226 -0.502781 13.095 -32.6302 13.4342 1.03948 3.75538 8.22034 -1.06757 -6.51836 -1.34347 0.120452 -1.20136 
-61.4391 96.6877 47.4636 97.6973 -87.5875 94.86 -171.904 4.85884 95.4467 -8.52187 11.8202 2.50451 54.8106 -1.16262 -2.02056 35.005 4.86851 2.36046 171.836 5.58227 89.5007 -16.8112 -5.86405 -0.120657 69.4336 -3.34315 -1.65979 27.4214 0.0767966 -1.88752 -0.305845 6.94129 -91.0887 12.9768 -1.12974 -2.03977 1.30485 -1.2184 -1.9881 -21.2185 -0.464658 -2.28487 -1.20579 -0.464664 -2.28488 92.3659 -53.565 -96.5385 15.4594 -5.81085 -1.29458 -2.79008 -29.1356 -37.9577 -5.8926 -0.988663 6.95162 -105.973 -52.6921 56.6565 -17.6886 22.5804 -4.95885 -0.329738 13.0537 -32.8793 12.8335 1.05508 4.23812 7.95827 -1.52113 -7.29626 -1.06187 -0.202109 -1.23175 
-60.713 96.7399 47.1823 94.4666 -87.8537 92.0553 -171.842 5.16204 95.4344 -8.56508 11.9985 2.37943 54.463 -1.24321 -1.14343 35.0361 4.90647 1.3653 172.064 5.58376 89.6019 -16.0783 -5.85397 -0.316 68.5925 -3.11469 -1.55966 27.8606 0.0803645 -1.74491 -0.313753 6.92012 -91.1149 13.0185 -1.1584 -2.08828 1.34645 -1.24917 -2.03531 -21.1763 -0.47744 -2.33974 -1.16362 -0.477431 -2.33975 92.0243 -53.5943 -97.0376 15.1183 -5.81111 -0.925308 -2.12231 -28.3264 -37.7008 -6.24513 -1.00254 6.90772 -105.88 -52.7137 56.7941 -17.9425 22.0855 -4.87897 0.467447 13.8805 -33.062 10.7678 0.904509 4.2358 7.70262 -1.68863 -7.16772 -0.871804 -0.426404 -1.85941 
-59.6758 96.8344 46.827 89.169 -87.9941 86.9401 -171.887 5.44094 95.036 -8.47157 11.3816 2.14897 54.5248 -1.20718 -0.976534 35.0508 4.92806 0.551304 172.022 5.78834 89.2385 -15.4733 -6.14867 -0.487739 67.6666 -2.86914 -1.44598 28.5299 0.122934 -2.03337 -0.330614 6.92406 -91.0944 13.0108 -1.182 -2.04463 1.33888 -1.27083 -1.99067 -21.1845 -0.51305 -2.30521 -1.17187 -0.513053 -2.30522 92.2189 -53.6662 -96.7377 14.8498 -5.52948 -1.35286 -2.4762 -28.9552 -37.536 -6.00842 -1.00354 7.08631 -105.907 -52.7983 56.793 -17.609 22.6803 -5.10796 -0.468435 13.146 -32.6331 12.9941 0.999792 3.69884 8.20321 -1.66436 -7.2495 -1.43282 -0.341665 -1.64747 
-58.3523 96.9175 46.3602 106.422 -88.314 104.117 -171.707 4.83662 94.4077 -8.24337 11.2718 1.62159 54.9745 -1.03416 -0.550968 34.4784 4.47015 0.82844 172.014 5.39441 88.5422 -14.8998 -6.44537 -1.02392 67.2786 -2.81428 -1.42389 28.3872 0.0954474 -1.69267 -0.32874 6.99209 -91.0247 12.8763 -1.14373 -1.91116 1.20451 -1.22672 -1.859 -21.3205 -0.516631 -2.16643 -1.30786 -0.516632 -2.16642 92.1138 -53.5815 -96.9079 14.9449 -5.41896 -1.14876 -2.76937 -28.7162 -37.805 -6.00217 -0.98326 6.78702 -105.839 -52.7245 56.8555 -17.4162 22.0557 -5.11425 -0.420965 12.8011 -32.5713 10.6041 1.03388 5.51441 7.59924 -1.57253 -6.8862 -0.823192 -0.370886 -1.90072 
-56.6431 96.9709 45.9459 94.6459 -88.3964 92.8365 -171.609 5.03882 93.9608 -7.91541 11.4738 1.18937 56.2729 -0.20573 0.324252 33.343 3.59218 0.0777263 171.99 5.71713 88.1456 -14.0867 -6.59582 -1.24107 66.2733 -2.59818 -1.32701 29.1145 0.147656 -2.15114 -0.332983 6.97194 -90.984 12.9174 -1.13298 -1.83068 1.24574 -1.21243 -1.77906 -21.2803 -0.530545 -2.08645 -1.26761 -0.530538 -2.08643 92.1012 -53.6504 -96.914 15.112 -5.28948 -1.27656 -2.59575 -28.658 -37.3618 -6.2158 -1.02143 7.14784 -105.389 -52.7499 57.4843 -17.4736 22.2359 -5.38865 -0.582753 13.5426 -31.7356 12.86 1.05919 4.19718 7.71102 -1.24841 -6.57849 -1.01602 -0.0946971 -1.75009 
-54.7812 97.0391 45.576 90.3744 -88.4009 88.8759 -171.62 5.44711 93.351 -8.51122 11.2155 0.757475 57.2852 0.0409073 0.63188 33.0849 3.42071 -0.703171 172.1 5.64461 87.601 -12.9606 -6.55705 -1.75027 64.8388 -2.22018 -1.1387 30.4222 0.226304 -2.87775 -0.313504 6.97152 -90.8546 12.921 -1.03233 -1.58412 1.2496 -1.10103 -1.53716 -21.2789 -0.508609 -1.82106 -1.26622 -0.508597 -1.82105 92.1964 -54.01 -96.7097 15.5149 -5.49377 -1.31106 -2.40741 -28.366 -37.3319 -6.24695 -1.01166 7.0104 -105.508 -52.6206 57.2671 -17.2912 21.7986 -4.87177 -0.600571 13.4423 -31.4423 12.7978 1.05845 4.24224 7.73717 -1.01579 -6.1359 -1.38204 0.079418 -1.03238 
-52.7709 97.1177 45.2295 85.7847 -88.9096 84.5968 -171.509 5.77217 92.6597 -9.2018 10.9981 0.208289 58.4982 0.338249 1.57914 32.2987 2.85782 -1.65333 172.169 5.33938 87.0066 -11.2712 -6.80284 -2.30283 63.1505 -1.85517 -0.953327 31.3477 0.270205 -3.38047 -0.249219 6.98481 -90.6681 12.8983 -0.815085 -1.23752 1.22703 -0.868756 -1.20046 -21.3041 -0.405521 -1.42524 -1.29142 -0.40552 -1.42524 92.3127 -54.3174 -96.485 16.4507 -5.7439 -1.45266 -2.75995 -28.0613 -37.7339 -6.01262 -0.998499 7.12199 -105.489 -52.7179 57.3343 -16.8205 21.2815 -4.42215 -0.669425 13.5144 -30.9064 12.9464 1.11842 4.60149 7.55818 -0.767112 -5.02126 -1.33468 0.116255 -0.971388 
-50.7892 97.1779 44.9409 80.0138 -89.2005 79.1546 -171.171 6.35499 92.1169 -10.351 10.1558 -0.520583 60.0041 0.731442 1.20065 31.0139 1.89047 -1.86426 172.364 4.93968 86.5184 -9.59563 -6.59163 -2.94853 61.6899 -1.61053 -0.834315 31.9062 0.304729 -4.00511 -0.199601 6.99886 -90.4482 12.8736 -0.611084 -0.822772 1.20255 -0.646706 -0.795084 -21.331 -0.335573 -0.968377 -1.31834 -0.335568 -0.968377 92.5061 -53.9923 -96.2576 18.0956 -6.38373 -1.7729 -2.80386 -28.3042 -37.8565 -6.15695 -0.997903 6.88764 -105.629 -53.1165 57.309 -15.8217 20.7375 -4.11681 -0.884113 14.0012 -29.7356 13.2475 1.13595 4.55163 6.98581 -0.322958 -3.57658 -0.663218 0.283835 -0.585812 
-48.7334 97.1494 44.6358 101.984 -89.3879 101.335 -171.013 6.52802 91.3757 -11.3937 10.9978 -1.16828 61.5338 1.67704 2.83257 29.4256 0.658957 -1.64996 172.443 4.94408 85.8105 -9.36518 -6.50981 -3.58271 60.5433 -1.32396 -0.662445 32.2856 0.298292 -3.62621 -0.124695 7.03503 -90.2156 12.8026 -0.350739 -0.388623 1.13163 -0.367511 -0.372824 -21.4032 -0.217732 -0.476067 -1.39057 -0.217731 -0.476076 92.7795 -53.5059 -95.9376 19.7365 -7.21587 -1.85411 -2.60556 -27.9827 -38.3388 -6.74687 -1.00006 6.33586 -106.268 -53.741 56.6989 -14.8911 19.8052 -3.19859 -0.763502 14.0352 -29.0483 12.3234 1.06201 4.56341 5.76804 0.0840248 -1.5355 0.605469 0.338256 0.062386 
-46.6998 97.0465 44.4404 -145.85 -89.4839 -146.173 -170.569 6.53607 90.9399 -12.4717 10.7095 -1.90784 63.1866 2.41001 2.30239 28.5512 -0.111135 -0.680063 172.541 4.5162 85.2987 -8.24941 -7.20279 -4.21369 59.4747 -1.23121 -0.629584 32.8578 0.314823 -3.87317 0.0502852 7.07217 -89.9828 12.7301 0.108125 0.0215811 1.05919 0.108965 0.016797 -21.476 0.0966364 0.0530835 -1.46334 0.096638 0.053079 92.5049 -53.494 -96.3456 20.5117 -7.87007 -1.48154 -3.24985 -28.4108 -39.0979 -6.35783 -0.97686 6.3041 -106.635 -54.233 56.409 -14.1443 18.8982 -1.9585 -0.451889 14.0489 -29.1095 13.3364 1.25867 5.37842 5.72431 0.0614704 0.583197 0.887238 0.0281074 1.50135 
-44.9109 96.9421 44.2663 -89.4903 -89.4781 -88.8046 -170.306 7.82482 90.9488 -14.0814 10.2912 -2.25581 64.5386 2.78096 2.14987 27.7823 -0.663777 -1.10929 173.044 5.05252 85.5627 -7.87873 -7.05738 -4.51716 57.6344 -0.769384 -0.332041 33.8774 0.348626 -4.73712 0.130257 7.01547 -89.8325 12.8425 0.338947 0.294285 1.17153 0.351563 0.279078 -21.3636 0.234834 0.382553 -1.3509 0.234828 0.382545 92.3049 -53.0026 -96.7286 21.8034 -8.29967 -1.5175 -4.32053 -29.5268 -39.7512 -5.3871 -0.926085 6.36719 -106.636 -54.5257 56.5315 -13.5108 18.0478 -0.644182 -0.263866 13.9322 -28.5802 11.6808 1.1156 5.39215 5.80793 0.311586 3.38514 0.592157 -0.14199 2.51215 
